<?xml version="1.0" encoding="UTF-8"?> <!-- Generator: Adobe Illustrator 22.0.1, SVG Export Plug-In . SVG Version: 6.00 Build 0) --> <svg xmlns="http://www.w3.org/2000/svg" xmlns:xlink="http://www.w3.org/1999/xlink" id="Layer_1" x="0px" y="0px" viewBox="0 0 224.6 117.4" style="enable-background:new 0 0 224.6 117.4;" xml:space="preserve"> <style type="text/css"> .st0{enable-background:new ;} .st1{fill:none;stroke:#000000;} </style> <g class="st0"> <path d="M12.2,16.5H1.6V8h30.7v8.5H21.9V43h-9.7V16.5z"></path> <path d="M37.6,8h9.7v13.1h12.5V8h9.7v35h-9.7V29.7H47.3V43h-9.7V8z"></path> <path d="M76.6,8h28.2v8.2H86.2v5.3h16.8v7.7H86.2v5.5h18.8V43H76.6V8z"></path> </g> <g class="st0"> <path class="st1" d="M12.2,16.5H1.6V8h30.7v8.5H21.9V43h-9.7V16.5z"></path> <path class="st1" d="M37.6,8h9.7v13.1h12.5V8h9.7v35h-9.7V29.7H47.3V43h-9.7V8z"></path> <path class="st1" d="M76.6,8h28.2v8.2H86.2v5.3h16.8v7.7H86.2v5.5h18.8V43H76.6V8z"></path> </g> <g class="st0"> <path d="M2.4,69.6L2.4,69.6c0-10.3,7.9-18.3,18.5-18.3c7.2,0,11.8,3,14.9,7.3l-7.3,5.6c-2-2.5-4.3-4.1-7.7-4.1 c-4.9,0-8.4,4.2-8.4,9.2v0.1c0,5.2,3.5,9.4,8.4,9.4c3.6,0,5.8-1.7,7.9-4.2l7.3,5.2c-3.3,4.6-7.8,7.9-15.5,7.9 C10.5,87.7,2.4,80,2.4,69.6z"></path> <path d="M41.1,52h28.2v8.3H50.7v5.3h16.8v7.7H50.7v5.5h18.8V87H41.1V52z"></path> <path d="M75.4,52h9.1l14.4,18.5V52h9.6v35H100l-15-19.2V87h-9.6V52z"></path> <path d="M124.2,60.5h-10.5V52h30.7v8.5h-10.5V87h-9.7V60.5z"></path> <path d="M149.7,52h28.2v8.3h-18.6v5.3h16.8v7.7h-16.8v5.5h18.8V87h-28.4V52z"></path> <path d="M184,52h16.6c5.3,0,9,1.4,11.4,3.8c2,2,3.1,4.7,3.1,8.1V64c0,5.3-2.8,8.9-7.2,10.8l8.4,12.2H205l-7-10.6h-0.1h-4.2V87H184 V52z M200.1,68.8c3.3,0,5.2-1.6,5.2-4.2v-0.1c0-2.8-2-4.2-5.2-4.2h-6.4v8.4H200.1z"></path> </g> <g class="st0"> <path class="st1" d="M2.4,69.6L2.4,69.6c0-10.3,7.9-18.3,18.5-18.3c7.2,0,11.8,3,14.9,7.3l-7.3,5.6c-2-2.5-4.3-4.1-7.7-4.1 c-4.9,0-8.4,4.2-8.4,9.2v0.1c0,5.2,3.5,9.4,8.4,9.4c3.6,0,5.8-1.7,7.9-4.2l7.3,5.2c-3.3,4.6-7.8,7.9-15.5,7.9 C10.5,87.7,2.4,80,2.4,69.6z"></path> <path class="st1" d="M41.1,52h28.2v8.3H50.7v5.3h16.8v7.7H50.7v5.5h18.8V87H41.1V52z"></path> <path class="st1" d="M75.4,52h9.1l14.4,18.5V52h9.6v35H100l-15-19.2V87h-9.6V52z"></path> <path class="st1" d="M124.2,60.5h-10.5V52h30.7v8.5h-10.5V87h-9.7V60.5z"></path> <path class="st1" d="M149.7,52h28.2v8.3h-18.6v5.3h16.8v7.7h-16.8v5.5h18.8V87h-28.4V52z"></path> <path class="st1" d="M184,52h16.6c5.3,0,9,1.4,11.4,3.8c2,2,3.1,4.7,3.1,8.1V64c0,5.3-2.8,8.9-7.2,10.8l8.4,12.2H205l-7-10.6h-0.1 h-4.2V87H184V52z M200.1,68.8c3.3,0,5.2-1.6,5.2-4.2v-0.1c0-2.8-2-4.2-5.2-4.2h-6.4v8.4H200.1z"></path> </g> <g class="st0"> <path d="M3.1,96.6H0.8v-1.9h6.8v1.9H5.2v5.8H3.1V96.6z"></path> <path d="M8.4,94.8h2.1v2.9h2.7v-2.9h2.1v7.7h-2.1v-2.9h-2.7v2.9H8.4V94.8z"></path> <path d="M16.8,94.8H23v1.8h-4.1v1.2h3.7v1.7h-3.7v1.2h4.1v1.8h-6.2V94.8z"></path> <path d="M27.2,94.8h2.1v5.8h3.7v1.9h-5.9V94.8z"></path> <path d="M34,94.8h6.2v1.8h-4.1v1.2h3.7v1.7h-3.7v1.2h4.1v1.8H34V94.8z"></path> <path d="M40.7,101.3l1.2-1.4c0.8,0.6,1.6,0.9,2.5,0.9c0.6,0,0.9-0.2,0.9-0.5v0c0-0.3-0.3-0.5-1.3-0.7c-1.6-0.4-2.9-0.8-2.9-2.4v0 c0-1.4,1.1-2.5,3-2.5c1.3,0,2.3,0.4,3.2,1l-1.1,1.5c-0.7-0.5-1.5-0.8-2.2-0.8c-0.5,0-0.8,0.2-0.8,0.5v0c0,0.4,0.3,0.5,1.3,0.7 c1.8,0.4,2.9,1,2.9,2.4v0c0,1.6-1.2,2.5-3.1,2.5C43,102.6,41.7,102.2,40.7,101.3z"></path> <path d="M48.5,94.8h3.9c1,0,1.6,0.2,2.1,0.7c0.3,0.3,0.5,0.7,0.5,1.2v0c0,0.9-0.5,1.4-1.2,1.7c0.9,0.3,1.5,0.8,1.5,1.9v0 c0,1.3-1.1,2.1-2.9,2.1h-4V94.8z M51.9,97.8c0.6,0,1-0.2,1-0.7v0c0-0.4-0.3-0.7-1-0.7h-1.4v1.4H51.9z M52.2,100.8 c0.6,0,1-0.3,1-0.7v0c0-0.4-0.3-0.7-1-0.7h-1.6v1.4H52.2z"></path> <path d="M56.4,94.8h2.1v7.7h-2.1V94.8z"></path> <path d="M62.6,94.7h2.1l3.3,7.8h-2.3l-0.6-1.4h-3l-0.5,1.4h-2.2L62.6,94.7z M64.5,99.4l-0.9-2.2l-0.9,2.2H64.5z"></path> <path d="M68.7,94.8h2l3.2,4.1v-4.1H76v7.7h-1.9l-3.3-4.2v4.2h-2.1V94.8z"></path> <path d="M76.9,103.5c0.7-0.1,1.1-0.4,1.1-1h-0.8v-2.1h2.2v1.7c0,1.6-0.9,2.2-2.3,2.2L76.9,103.5z"></path> <path d="M83.2,98.6L83.2,98.6c0-2.3,1.8-4,4.1-4c1.4,0,2.3,0.4,3.1,1.1l-1.3,1.5c-0.6-0.5-1.1-0.7-1.9-0.7c-1.1,0-2,0.9-2,2.1v0 c0,1.2,0.9,2.1,2.1,2.1c0.5,0,0.9-0.1,1.2-0.3v-0.9h-1.5V98h3.5v3.5c-0.8,0.7-1.9,1.2-3.3,1.2C85,102.6,83.2,101,83.2,98.6z"></path> <path d="M94.6,94.7h2.1l3.3,7.8h-2.3l-0.6-1.4h-3l-0.5,1.4h-2.2L94.6,94.7z M96.5,99.4l-0.9-2.2l-0.9,2.2H96.5z"></path> <path d="M101.7,99.6l-2.9-4.8h2.4l1.6,2.8l1.6-2.8h2.4l-2.9,4.8v2.9h-2.1V99.6z"></path> <path d="M105.5,103.5c0.7-0.1,1.1-0.4,1.1-1h-0.8v-2.1h2.2v1.7c0,1.6-0.9,2.2-2.3,2.2L105.5,103.5z"></path> <path d="M112.2,94.8h3.9c1,0,1.6,0.2,2.1,0.7c0.3,0.3,0.5,0.7,0.5,1.2v0c0,0.9-0.5,1.4-1.2,1.7c0.9,0.3,1.5,0.8,1.5,1.9v0 c0,1.3-1.1,2.1-2.9,2.1h-4V94.8z M115.6,97.8c0.6,0,1-0.2,1-0.7v0c0-0.4-0.3-0.7-1-0.7h-1.4v1.4H115.6z M115.9,100.8 c0.6,0,1-0.3,1-0.7v0c0-0.4-0.3-0.7-1-0.7h-1.6v1.4H115.9z"></path> <path d="M120.1,94.8h2.1v7.7h-2.1V94.8z"></path> <path d="M123.1,101.3l1.2-1.4c0.8,0.6,1.6,0.9,2.5,0.9c0.6,0,0.9-0.2,0.9-0.5v0c0-0.3-0.3-0.5-1.3-0.7c-1.6-0.4-2.9-0.8-2.9-2.4v0 c0-1.4,1.1-2.5,3-2.5c1.3,0,2.3,0.4,3.2,1l-1.1,1.5c-0.7-0.5-1.5-0.8-2.2-0.8c-0.5,0-0.8,0.2-0.8,0.5v0c0,0.4,0.3,0.5,1.3,0.7 c1.8,0.4,2.9,1,2.9,2.4v0c0,1.6-1.2,2.5-3.1,2.5C125.3,102.6,124,102.2,123.1,101.3z"></path> <path d="M130.8,94.8h6.2v1.8h-4.1v1.2h3.7v1.7h-3.7v1.2h4.1v1.8h-6.2V94.8z"></path> <path d="M140.2,98.6l-2.5-3.8h2.5l1.4,2.2l1.4-2.2h2.4l-2.5,3.8l2.6,3.9h-2.5l-1.5-2.3l-1.5,2.3h-2.4L140.2,98.6z"></path> <path d="M146,99.1v-4.3h2.2v4.3c0,1.1,0.6,1.6,1.4,1.6c0.9,0,1.4-0.5,1.4-1.6v-4.3h2.2V99c0,2.5-1.4,3.6-3.6,3.6 S146,101.5,146,99.1z"></path> <path d="M156.8,94.7h2.1l3.3,7.8h-2.3l-0.6-1.4h-3l-0.6,1.4h-2.2L156.8,94.7z M158.7,99.4l-0.9-2.2l-0.9,2.2H158.7z"></path> <path d="M162.9,94.8h2.1v5.8h3.7v1.9h-5.9V94.8z"></path> <path d="M177.3,101.8c-0.6,0.5-1.4,0.8-2.3,0.8c-1.6,0-2.8-0.8-2.8-2.2v0c0-1,0.5-1.7,1.6-2.2c-0.4-0.5-0.5-1-0.5-1.5v0 c0-1.1,0.9-2.1,2.4-2.1c1.4,0,2.3,0.9,2.3,2v0c0,0.9-0.6,1.6-1.5,2l0.9,0.8c0.3-0.4,0.5-0.8,0.7-1.2l1.4,0.7 c-0.3,0.6-0.6,1.1-1,1.6l1,1l-1.4,1L177.3,101.8z M176.2,100.7l-1.3-1.3c-0.4,0.2-0.6,0.5-0.6,0.8v0c0,0.5,0.4,0.8,0.9,0.8 C175.6,101,175.9,100.9,176.2,100.7z M176.3,96.7L176.3,96.7c0-0.4-0.2-0.6-0.6-0.6c-0.4,0-0.6,0.3-0.6,0.7v0 c0,0.3,0.1,0.5,0.4,0.9C176.1,97.4,176.3,97.1,176.3,96.7z"></path> </g> <g class="st0"> <path d="M3.1,109.6H0.8v-1.9h6.8v1.9H5.2v5.8H3.1V109.6z"></path> <path d="M8.4,107.8h3.6c1.2,0,2,0.3,2.5,0.8c0.5,0.4,0.7,1,0.7,1.8v0c0,1.2-0.6,2-1.6,2.4l1.8,2.7h-2.5l-1.6-2.3h0h-0.9v2.3H8.4 V107.8z M12,111.5c0.7,0,1.1-0.4,1.1-0.9v0c0-0.6-0.4-0.9-1.2-0.9h-1.4v1.8H12z"></path> <path d="M18.9,107.7h2.1l3.3,7.8h-2.3l-0.6-1.4h-3l-0.5,1.4h-2.2L18.9,107.7z M20.8,112.4l-0.9-2.2l-0.9,2.2H20.8z"></path> <path d="M25,107.8h2l3.2,4.1v-4.1h2.1v7.7h-1.9l-3.3-4.2v4.2H25V107.8z"></path> <path d="M33,114.3l1.2-1.4c0.8,0.6,1.6,0.9,2.5,0.9c0.6,0,0.9-0.2,0.9-0.5v0c0-0.3-0.3-0.5-1.3-0.7c-1.6-0.4-2.9-0.8-2.9-2.4v0 c0-1.4,1.1-2.5,3-2.5c1.3,0,2.3,0.4,3.2,1l-1.1,1.5c-0.7-0.5-1.5-0.8-2.2-0.8c-0.5,0-0.8,0.2-0.8,0.5v0c0,0.4,0.3,0.5,1.3,0.7 c1.8,0.4,2.9,1,2.9,2.4v0c0,1.6-1.2,2.5-3.1,2.5C35.3,115.6,34,115.2,33,114.3z"></path> <path d="M40.5,111.6L40.5,111.6c0-2.3,1.8-4,4.1-4c1.4,0,2.3,0.4,3.1,1.1l-1.3,1.5c-0.6-0.5-1.1-0.7-1.9-0.7c-1.1,0-2,0.9-2,2.1v0 c0,1.2,0.9,2.1,2.1,2.1c0.5,0,0.9-0.1,1.2-0.3v-0.9h-1.5V111H48v3.5c-0.8,0.7-1.9,1.2-3.3,1.2C42.3,115.6,40.5,114,40.5,111.6z"></path> <path d="M49.2,107.8h6.2v1.8h-4.1v1.2H55v1.7h-3.7v1.2h4.1v1.8h-6.2V107.8z"></path> <path d="M56.6,107.8h2l3.2,4.1v-4.1h2.1v7.7H62l-3.3-4.2v4.2h-2.1V107.8z"></path> <path d="M65.2,107.8h3c2.8,0,4.3,1.6,4.3,3.8v0c0,2.2-1.6,3.9-4.4,3.9h-2.9V107.8z M68.2,113.6c1.3,0,2.1-0.7,2.1-1.9v0 c0-1.2-0.8-1.9-2.1-1.9h-0.9v3.9H68.2z"></path> <path d="M73.6,107.8h6.2v1.8h-4.1v1.2h3.7v1.7h-3.7v1.2h4.1v1.8h-6.2V107.8z"></path> <path d="M81,107.8h3.6c1.2,0,2,0.3,2.5,0.8c0.5,0.4,0.7,1,0.7,1.8v0c0,1.2-0.6,2-1.6,2.4l1.8,2.7h-2.5l-1.6-2.3h0h-0.9v2.3H81 V107.8z M84.5,111.5c0.7,0,1.1-0.4,1.1-0.9v0c0-0.6-0.4-0.9-1.2-0.9h-1.4v1.8H84.5z"></path> <path d="M91.6,111.6L91.6,111.6c0-2.3,1.7-4,4.1-4c1.6,0,2.6,0.7,3.3,1.6l-1.6,1.2c-0.4-0.5-0.9-0.9-1.7-0.9c-1.1,0-1.8,0.9-1.8,2 v0c0,1.2,0.8,2.1,1.8,2.1c0.8,0,1.3-0.4,1.7-0.9l1.6,1.1c-0.7,1-1.7,1.7-3.4,1.7C93.4,115.6,91.6,113.9,91.6,111.6z"></path> <path d="M99.5,111.6L99.5,111.6c0-2.2,1.8-4,4.2-4s4.1,1.8,4.1,4v0c0,2.2-1.8,4-4.2,4S99.5,113.9,99.5,111.6z M105.6,111.6 L105.6,111.6c0-1.1-0.8-2.1-2-2.1c-1.2,0-1.9,0.9-1.9,2.1v0c0,1.1,0.8,2.1,2,2.1C104.8,113.7,105.6,112.8,105.6,111.6z"></path> <path d="M108.9,107.8h2.3l1.8,3l1.8-3h2.3v7.7h-2.1v-4.4l-2,3h0l-2-3v4.4h-2.1V107.8z"></path> <path d="M118.4,107.8h2.3l1.8,3l1.8-3h2.3v7.7h-2.1v-4.4l-2,3h0l-2-3v4.4h-2.1V107.8z"></path> <path d="M127.9,112.1v-4.3h2.2v4.3c0,1.1,0.6,1.6,1.4,1.6c0.9,0,1.4-0.5,1.4-1.6v-4.3h2.2v4.3c0,2.5-1.4,3.6-3.6,3.6 S127.9,114.5,127.9,112.1z"></path> <path d="M136.3,107.8h2l3.2,4.1v-4.1h2.1v7.7h-1.9l-3.3-4.2v4.2h-2.1V107.8z"></path> <path d="M145,107.8h2.1v7.7H145V107.8z"></path> <path d="M150.4,109.6h-2.3v-1.9h6.8v1.9h-2.3v5.8h-2.1V109.6z"></path> <path d="M158,112.6l-2.9-4.8h2.4l1.6,2.8l1.6-2.8h2.4l-2.9,4.8v2.9H158V112.6z"></path> <path d="M166.5,111.6L166.5,111.6c0-2.3,1.7-4,4.1-4c1.6,0,2.6,0.7,3.3,1.6l-1.6,1.2c-0.4-0.5-0.9-0.9-1.7-0.9 c-1.1,0-1.8,0.9-1.8,2v0c0,1.2,0.8,2.1,1.8,2.1c0.8,0,1.3-0.4,1.7-0.9l1.6,1.1c-0.7,1-1.7,1.7-3.4,1.7 C168.3,115.6,166.5,113.9,166.5,111.6z"></path> <path d="M174.8,107.8h6.2v1.8h-4.1v1.2h3.7v1.7h-3.7v1.2h4.1v1.8h-6.2V107.8z"></path> <path d="M182.2,107.8h2l3.2,4.1v-4.1h2.1v7.7h-1.9l-3.3-4.2v4.2h-2.1V107.8z"></path> <path d="M192.7,109.6h-2.3v-1.9h6.8v1.9h-2.3v5.8h-2.1V109.6z"></path> <path d="M198,107.8h6.2v1.8h-4.1v1.2h3.7v1.7h-3.7v1.2h4.1v1.8H198V107.8z"></path> <path d="M205.4,107.8h3.6c1.2,0,2,0.3,2.5,0.8c0.5,0.4,0.7,1,0.7,1.8v0c0,1.2-0.6,2-1.6,2.4l1.8,2.7H210l-1.6-2.3h0h-0.9v2.3h-2.1 V107.8z M208.9,111.5c0.7,0,1.1-0.4,1.1-0.9v0c0-0.6-0.4-0.9-1.2-0.9h-1.4v1.8H208.9z"></path> </g> </svg> 